<?xml version="1.0" encoding="UTF-8"?>
<svg id="familymart" xmlns="http://www.w3.org/2000/svg" viewBox="0 0 2279.41 605.51">
  <defs>
    <style>
      .cls-1 {
        fill: #fff;
        fill-rule: evenodd;
        stroke-width: 0px;
      }
    </style>
  </defs>
  <path class="cls-1" d="m0,150.18h2279.41V0H0v150.18h0Z"/>
  <path class="cls-1" d="m256.1,496.85h54.36l.05-120.44h117.29v-54.41h-117.34v-53.24h118.36v-54.43h-172.72v282.52Zm338.25-132.17c0-12.3,1.82-37.61-30.17-55.46-34.47-19.25-89.52-4.23-105.52,2.17v42.61c23.27-14.46,56.42-19.04,75.69-9.58,18.16,8.9,16.81,24.11,13.28,30.12-4.27-1.06-19.92-6.82-49.38-4.02-36.19,3.53-61.81,30.67-57.21,77.86,3.99,40.45,46.94,48.48,65.61,48.48,25.55,0,45.47-14.21,45.47-14.21,1.04,6.06,2.32,10.47,5.29,14.21h48.01c-7.46-8.13-10.87-25.56-10.87-32.46.01-6.9-.22-87.47-.22-99.7h0Zm-76.31,94.13c-18.12.8-29.88-11.7-29.88-28.79s15.99-27.99,30.56-27.99c18.86,0,28.42,7.07,28.42,7.07,0,0,.39,31.31,1.08,36.98-7.11,6.73-13.11,12.01-30.17,12.74Zm1243.83-94.13c0-12.3,1.88-37.61-30.09-55.46-34.53-19.25-89.54-4.23-105.53,2.17v42.61c23.28-14.46,56.42-19.04,75.67-9.58,18.13,8.9,16.85,24.11,13.32,30.12-4.31-1.06-19.96-6.82-49.4-4.02-36.25,3.53-61.87,30.67-57.2,77.86,4.01,40.45,46.91,48.48,65.59,48.48,25.59,0,45.45-14.21,45.45-14.21,1.14,6.06,2.36,10.47,5.4,14.21h47.92c-7.47-8.13-10.87-25.56-10.87-32.46s-.25-87.47-.25-99.7h0Zm-76.28,94.13c-18.13.8-29.87-11.7-29.87-28.79s15.94-27.99,30.53-27.99c18.85,0,28.44,7.07,28.44,7.07,0,0,.32,31.31,1.09,36.98-7.15,6.73-13.13,12.01-30.19,12.74Zm-842.57-157.15c-41.09-1.09-59.18,22.48-59.18,22.48,0,0-16.03-22.36-53.82-22.36-27.17,0-44.16,16.5-44.16,16.5v-14.37h-51.27l.09,192.94h51.11v-131.64c2.56-15.84,35.77-22.9,45.9-12.81,10.12,10.17,10.57,13.37,10.57,26.72v117.75h51.76v-132.16c0-6.78,23.22-22.59,40.97-13.85,15.87,7.77,16.58,15.45,16.58,26.63v119.4h49.56v-126.86c-.01-12.79,2.72-66.86-58.1-68.35h0Zm99.15,195.19h49.04v-194.92h-49.04v194.92Zm91.59,0h49.01V214.51h-49.01v282.34h0Zm172.11-84.21l-45.48-110.98h-51.5l72.66,177.69-25.16,68.42,51.22.3,88.53-246.36h-50.1l-40.15,110.94h0Zm243.01-111.19l-73.88-86.96h-52.2v282.36h49.06v-203.65l77.01,91.07,76.47-90.71v203.29h49.35V214.48h-52.46l-73.36,86.96Zm399.04,23.27v-22.94h-49.14v195.07h49.04v-124.69s30.88-41.56,68.75-12.79v-52.24c-18.13-7.46-41.57-12.79-68.65,17.6h0Zm205.14,20.78v-43.8h-44.23v-73.47l-46.51,19.18v54.07h-29.23v44.02h29.34v87.42c0,25.08,13.24,50.45,36.28,58.64,19.8,7,31.33,7.61,53.85.77v-44.68c-9.73,2.56-34.2,6.76-40.79-11.69-4.2-11.83-2.87-15.85-2.87-29.7v-60.75h44.16ZM966.97,213.17c-17.36-.35-31.72,13.43-32.07,30.79s13.43,31.72,30.79,32.07c.43,0,.85,0,1.28,0,17.36-.35,31.15-14.71,30.79-32.07-.34-16.86-13.93-30.45-30.79-30.79Zm1312.44,346.55v45.78H0v-45.78h2279.41Z"/>
</svg>